<?xml version="1.0" encoding="UTF-8" standalone="no"?>
<svg xmlns:svg="http://www.w3.org/2000/svg" xmlns="http://www.w3.org/2000/svg" width="51.925938" height="43.264874" version="1.1">
  <g transform="translate(-251.17989,-307.8726)">
    <g transform="matrix(1.25,0,0,-1.25,513.08375,484.44251)">
      <path d="m -195.67666,120.4862 -6.92322,0 0,6.92329 -6.92321,0 0,6.92322 6.92321,0 0,6.92322 6.92322,0 0,-6.92322 6.92467,0 0,-6.92322 -6.92467,0 0,-6.92329" style="fill:#d6d6d6; fill-opacity:1; fill-rule:nonzero; stroke:none"/>
      <path d="m -174.90556,106.64403 -6.92322,0 0,6.92322 -6.92321,0 0,6.91895 6.92321,0 0,6.92748 6.92322,0 0,-6.92321 6.92322,0 0,-6.92322 -6.92322,0 0,-6.92322" style="fill:#d6d6d6; fill-opacity:1; fill-rule:nonzero; stroke:none"/>
      <path d="m -181.82878,120.4862 -13.84788,0 0,6.92329 6.92467,0 0,6.92322 -6.92467,0 0,6.92322 20.76973,0 0,-6.92322 -6.92185,0 0,-13.84651" style="fill:#262420;fill-opacity:1;fill-rule:nonzero;stroke:none"/>
    </g>
  </g>
</svg>