<?xml version="1.0" encoding="UTF-8" standalone="no"?>
<svg width="422px" height="884px" viewBox="0 0 422 884" version="1.1" xmlns="http://www.w3.org/2000/svg" xmlns:xlink="http://www.w3.org/1999/xlink" xmlns:sketch="http://www.bohemiancoding.com/sketch/ns">
    <title>Untitled</title>
    <g id="Page-1" stroke="none" stroke-width="1" fill="none" fill-rule="evenodd" sketch:type="MSPage">
        <g id="iPhone" sketch:type="MSLayerGroup" transform="translate(0.000000, -3.000000)">
            <g id="layer1" transform="translate(-0.117075, -0.041266)">
                <path d="M68.894144,886.13042 C33.8460979,886.13042 5.339838,857.61857 5.339838,822.57052 L5.339838,71.82168 C5.339838,36.773655 33.8460979,8.261802 68.894144,8.261802 L358.2825,8.261802 C393.33053,8.261802 421.8424,36.773655 421.8424,71.82168 L421.8424,822.57052 C421.8424,857.61857 393.33053,886.13042 358.2825,886.13042 L68.894144,886.13042 L68.894144,886.13042 Z" id="path3328" fill="#5C5C5C" sketch:type="MSShapeGroup"></path>
                <path d="M68.894144,882.16618 C36.0341507,882.16618 9.301837,855.43386 9.301837,822.57387 L9.301837,71.81946 C9.301837,38.959464 36.0341507,12.22715 68.894144,12.22715 L358.2825,12.22715 C391.14248,12.22715 417.87479,38.959464 417.87479,71.81946 L417.87479,822.57387 C417.87479,855.43386 391.14248,882.16618 358.2825,882.16618 L68.894144,882.16618 L68.894144,882.16618 Z" id="path3332" fill="#171717" sketch:type="MSShapeGroup"></path>
                <path d="M225.11732,53.552835 C225.11732,59.921134 219.95776,65.08628 213.58946,65.08628 C207.22116,65.08628 202.0616,59.921134 202.0616,53.552835 C202.0616,47.184535 207.22116,42.024978 213.58946,42.024978 C219.95776,42.024978 225.11732,47.184535 225.11732,53.552835" id="path3336" fill="#2F2E30" sketch:type="MSShapeGroup"></path>
                <path d="M213.58946,60.142748 C209.95762,60.142748 207.00291,57.188023 207.00291,53.550608 C207.00291,49.918768 209.95762,46.96406 213.58946,46.96406 C217.2213,46.96406 220.17601,49.918768 220.17601,53.550608 C220.17601,57.188023 217.2213,60.142748 213.58946,60.142748" id="path3340" fill="#4D4D4D" sketch:type="MSShapeGroup"></path>
                <path d="M243.11921,78.93427 L183.89066,78.93427 C178.94935,78.93427 174.94818,82.94104 174.94818,87.88235 C174.94818,92.82366 178.94935,96.82483 183.89066,96.82483 L243.11921,96.82483 C248.06052,96.82483 252.0673,92.82366 252.0673,87.88235 C252.0673,82.94104 248.06052,78.93427 243.11921,78.93427" id="path3344" fill="#2F2E30" sketch:type="MSShapeGroup"></path>
                <path d="M183.89124,92.99212 C181.07083,92.99212 178.78205,90.69775 178.78205,87.87734 C178.78205,85.06252 181.07083,82.76814 183.89124,82.76814 L243.11979,82.76814 C245.9402,82.76814 248.22899,85.06252 248.22899,87.87734 C248.22899,90.69775 245.9402,92.99212 243.11979,92.99212 L183.89124,92.99212 L183.89124,92.99212 Z" id="path3348" fill="#4D4D4D" sketch:type="MSShapeGroup"></path>
                <path d="M152.73693,78.93427 L152.78713,78.93427 C147.85142,78.93427 143.84466,82.94104 143.84466,87.88235 C143.84466,92.82366 147.85142,96.82483 152.78713,96.82483 L152.73693,96.82483 C157.67824,96.82483 161.685,92.82366 161.685,87.88235 C161.685,82.94104 157.67824,78.93427 152.73693,78.93427" id="path3352" fill="#2F2E30" sketch:type="MSShapeGroup"></path>
                <path d="M152.79008,92.99212 C149.96965,92.99212 147.67528,90.69775 147.67528,87.87734 C147.67528,85.06252 149.96965,82.76814 152.79008,82.76814 L152.73938,82.76814 C155.55419,82.76814 157.84856,85.06252 157.84856,87.87734 C157.84856,90.69775 155.55419,92.99212 152.73938,92.99212 L152.79008,92.99212 L152.79008,92.99212 Z" id="path3356" fill="#4D4D4D" sketch:type="MSShapeGroup"></path>
                <path d="M213.58664,859.1379 C193.16107,859.1379 176.5576,842.51766 176.5576,822.09768 C176.5576,801.68329 193.16107,785.06864 213.58664,785.06864 C234.01221,785.06864 250.62686,801.68329 250.62686,822.09768 C250.62686,842.51766 234.01221,859.1379 213.58664,859.1379 M213.58664,782.41611 C191.67811,782.41611 173.90507,800.18356 173.90507,822.09768 C173.90507,844.01739 191.67811,861.79043 213.58664,861.79043 C235.50635,861.79043 253.27939,844.01739 253.27939,822.09768 C253.27939,800.18356 235.50635,782.41611 213.58664,782.41611" id="path3360" fill="#3C3B3D" sketch:type="MSShapeGroup"></path>
                <path d="M417.89776,820.94096 L421.85976,820.94096 L421.85976,823.58228 L417.89776,823.58228 L417.89776,820.94096 L417.89776,820.94096 Z" id="path3364" fill="#1C1C1C" sketch:type="MSShapeGroup"></path>
                <path d="M5.340416,820.77867 L9.302415,820.77867 L9.302415,823.42 L5.340416,823.42 L5.340416,820.77867 L5.340416,820.77867 Z" id="path3366" fill="#1C1C1C" sketch:type="MSShapeGroup"></path>
                <path d="M417.87538,83.98638 L421.84298,83.98638 L421.84298,86.62771 L417.87538,86.62771 L417.87538,83.98638 L417.87538,83.98638 Z" id="path3368" fill="#1C1C1C" sketch:type="MSShapeGroup"></path>
                <path d="M352.62042,4.367531 C352.62042,3.640044 352.02164,3.041266 351.29415,3.041266 L285.62455,3.041266 C284.89707,3.041266 284.29829,3.640044 284.29829,4.367531 L284.29829,8.26238 L352.62042,8.26238 L352.62042,4.367531 L352.62042,4.367531 Z" id="path3372" fill="#5C5C5C" sketch:type="MSShapeGroup"></path>
                <g id="g3382" transform="translate(315.490038, 2.916203) scale(1, -1) translate(-315.490038, -2.916203) translate(281.913758, 0.118179)">
                    <g id="g3384-Clipped">
                        <mask id="mask-2" sketch:name="path3380" fill="white">
                            <use xlink:href="#path-1"></use>
                        </mask>
                        <g id="path3380"></g>
                        <g id="g3384" mask="url(#mask-2)" fill="#000000" sketch:type="MSShapeGroup">
                            <path d="M70.7060488,-2.5462012 L2.38391585,-2.5462012 L2.38391585,-1.21993816 L70.7060488,-1.21993816 L70.7060488,-2.5462012 L70.7060488,-2.5462012 Z" id="path3386"></path>
                        </g>
                    </g>
                </g>
                <path d="M1.443323,206.09436 C0.715836,206.09436 0.117075,206.69314 0.117075,207.42062 L0.117075,234.63419 C0.117075,235.36168 0.715836,235.96046 1.443323,235.96046 L5.338172,235.96046 L5.338172,206.09436 L1.443323,206.09436 L1.443323,206.09436 Z" id="path3390" fill="#5C5C5C" sketch:type="MSShapeGroup"></path>
                <g id="g3400" transform="translate(4.909452, 221.162020) scale(1, -1) translate(-4.909452, -221.162020) translate(2.111428, 207.171904)">
                    <g id="g3402-Clipped">
                        <mask id="mask-4" sketch:name="path3398" fill="white">
                            <use xlink:href="#path-3"></use>
                        </mask>
                        <g id="path3398"></g>
                        <g id="g3402" mask="url(#mask-4)" fill="#000000" sketch:type="MSShapeGroup">
                            <path d="M3.22891889,-0.80583071 L1.90265584,-0.80583071 L1.90265584,29.06027 L3.22891889,29.06027 L3.22891889,-0.80583071 L3.22891889,-0.80583071 Z" id="path3404"></path>
                        </g>
                    </g>
                </g>
                <path d="M1.443323,123.68922 C0.715836,123.68922 0.117075,124.28798 0.117075,125.01547 L0.117075,162.45303 C0.117075,163.1805 0.715836,163.77928 1.443323,163.77928 L5.338172,163.77928 L5.338172,123.68922 L1.443323,123.68922 L1.443323,123.68922 Z" id="path3408" fill="#5C5C5C" sketch:type="MSShapeGroup"></path>
                <g id="g3418" transform="translate(4.909452, 142.817368) scale(1, -1) translate(-4.909452, -142.817368) translate(2.111428, 123.231205)">
                    <g id="g3420-Clipped">
                        <mask id="mask-6" sketch:name="path3416" fill="white">
                            <use xlink:href="#path-5"></use>
                        </mask>
                        <g id="path3416"></g>
                        <g id="g3420" mask="url(#mask-6)" fill="#000000" sketch:type="MSShapeGroup">
                            <path d="M3.22891889,-1.37103142 L1.90265584,-1.37103142 L1.90265584,38.7190464 L3.22891889,38.7190464 L3.22891889,-1.37103142 L3.22891889,-1.37103142 Z" id="path3422"></path>
                        </g>
                    </g>
                </g>
                <path d="M1.443323,279.09649 C0.715836,279.09649 0.117075,279.68967 0.117075,280.42275 L0.117075,307.63632 C0.117075,308.36381 0.715836,308.96259 1.443323,308.96259 L5.338172,308.96259 L5.338172,279.09649 L1.443323,279.09649 L1.443323,279.09649 Z" id="path3426" fill="#5C5C5C" sketch:type="MSShapeGroup"></path>
                <g id="g3436" transform="translate(4.909452, 293.910626) scale(1, -1) translate(-4.909452, -293.910626) translate(2.111428, 279.920509)">
                    <g id="g3438-Clipped">
                        <mask id="mask-8" sketch:name="path3434" fill="white">
                            <use xlink:href="#path-7"></use>
                        </mask>
                        <g id="path3434"></g>
                        <g id="g3438" mask="url(#mask-8)" fill="#000000" sketch:type="MSShapeGroup">
                            <path d="M3.22891889,-1.06324885 L1.90265584,-1.06324885 L1.90265584,28.8028519 L3.22891889,28.8028519 L3.22891889,-1.06324885 L3.22891889,-1.06324885 Z" id="path3440"></path>
                        </g>
                    </g>
                </g>
                <path d="M389.12849,763.16737 L35.6430117,763.16737 L35.6430117,133.58414 L389.12849,133.58414 L389.12849,763.16737 L389.12849,763.16737 Z" id="path3362" opacity="0.078" fill="#2F2F2F" sketch:type="MSShapeGroup"></path>
                <g id="g3450" transform="translate(122.426430, 442.205861) scale(1, -1) translate(-122.426430, -442.205861) translate(7.707475, 11.310273)">
                    <g id="g3452-Clipped">
                        <mask id="mask-10" sketch:name="path3448" fill="white">
                            <use xlink:href="#path-9"></use>
                        </mask>
                        <g id="path3448"></g>
                        <g id="g3452" mask="url(#mask-10)" fill="#FFFFFF" sketch:type="MSShapeGroup">
                            <g id="g3454" transform="translate(-0.369899, -0.916632)">
                                <path d="M61.5565126,861.791176 C28.696527,861.791176 1.96421236,835.058862 1.96421236,802.198876 L1.96421236,51.4444564 C1.96421236,28.3271879 15.2268428,8.28214897 34.5164154,-1.59487328 L229.907979,861.791176 L61.5565126,861.791176 L61.5565126,861.791176 Z" id="path3456"></path>
                            </g>
                        </g>
                    </g>
                </g>
            </g>
        </g>
    </g>
</svg>