<?xml version="1.0" encoding="UTF-8" standalone="no"?>
<svg width="808px" height="1058px" viewBox="0 0 808 1058" version="1.1" xmlns="http://www.w3.org/2000/svg" xmlns:xlink="http://www.w3.org/1999/xlink" xmlns:sketch="http://www.bohemiancoding.com/sketch/ns">
    <title>Untitled</title>
    <g id="Page-1" stroke="none" stroke-width="1" fill="none" fill-rule="evenodd" sketch:type="MSPage">
        <g id="iPad" sketch:type="MSLayerGroup">
            <g id="layer1" transform="translate(0.049560, -0.275171)">
                <path d="M42.6326,1057.6218 C19.09484,1057.6218 -0.04956,1038.4736 -0.04956,1014.93591 L-0.04956,42.961091 C-0.04956,19.4233311 19.09484,0.275171 42.6326,0.275171 L765.04995,0.275171 C788.58771,0.275171 807.73587,19.4233311 807.73587,42.961091 L807.73587,1014.93591 C807.73587,1038.4736 788.58771,1057.6218 765.04995,1057.6218 L42.6326,1057.6218 L42.6326,1057.6218 Z" id="path1562" fill="#DEDBE6" sketch:type="MSShapeGroup"></path>
                <path d="M42.6326,1054.9591 C20.5643,1054.9591 2.61126,1037.0061 2.61126,1014.93781 L2.61126,42.959201 C2.61126,20.8909011 20.5643,2.937861 42.6326,2.937861 L765.04995,2.937861 C787.12201,2.937861 805.07505,20.8909011 805.07505,42.959201 L805.07505,1014.93781 C805.07505,1037.0061 787.12201,1054.9591 765.04995,1054.9591 L42.6326,1054.9591 L42.6326,1054.9591 Z" id="path1566" fill="#171717" sketch:type="MSShapeGroup"></path>
                <path d="M409.84916,47.516811 C409.84916,50.835331 407.15827,53.526221 403.83976,53.526221 C400.52125,53.526221 397.83411,50.835331 397.83411,47.516811 C397.83411,44.198301 400.52125,41.511171 403.83976,41.511171 C407.15827,41.511171 409.84916,44.198301 409.84916,47.516811" id="path1570" fill="#2F2E30" sketch:type="MSShapeGroup"></path>
                <path d="M403.84165,50.950691 C401.94751,50.950691 400.40663,49.409821 400.40663,47.515671 C400.40663,45.625281 401.94751,44.084411 403.84165,44.084411 C405.73204,44.084411 407.27667,45.625281 407.27667,47.515671 C407.27667,49.409821 405.73204,50.950691 403.84165,50.950691" id="path1574" fill="#4D4D4D" sketch:type="MSShapeGroup"></path>
                <path d="M430.51528,1010.16631 C430.51528,995.44911 418.58292,983.51301 403.86195,983.51301 C389.14098,983.51301 377.20861,995.44911 377.20861,1010.16631 C377.20861,1024.8873 389.14098,1036.8196 403.86195,1036.8196 C418.58292,1036.8196 430.51528,1024.8873 430.51528,1010.16631" id="path1578" fill="#2F2E30" sketch:type="MSShapeGroup"></path>
                <path d="M408.84123,1000.92181 L399.92294,1000.92181 C397.28842,1000.92181 395.13496,1003.07531 395.13496,1005.70981 L395.13496,1014.62811 C395.13496,1017.25881 397.28842,1019.4123 399.92294,1019.4123 L408.84123,1019.4123 C411.47199,1019.4123 413.62543,1017.25881 413.62543,1014.62811 L413.62543,1005.70981 C413.62543,1003.07531 411.47199,1000.92181 408.84123,1000.92181 M408.84123,1002.77091 C410.461,1002.77091 411.77638,1004.08631 411.77638,1005.70981 L411.77638,1014.62811 C411.77638,1016.24791 410.461,1017.56331 408.84123,1017.56331 L399.92294,1017.56331 C398.30314,1017.56331 396.984,1016.24791 396.984,1014.62811 L396.984,1005.70981 C396.984,1004.08621 398.30314,1002.77091 399.92294,1002.77091 L408.84123,1002.77091" id="path1582" fill="#747278" sketch:type="MSShapeGroup"></path>
                <path d="M729.64632,962.76681 L79.762727,962.76681 L79.762727,98.596721 L729.64632,98.596721 L729.64632,962.76681 L729.64632,962.76681 Z" id="path1584" opacity="0.0781893" fill="#2F2F2F" sketch:type="MSShapeGroup"></path>
                <g id="g1594" transform="translate(193.516687, 528.940051) scale(1, -1) translate(-193.516687, -528.940051) translate(1.847197, 2.788509)">
                    <g id="g1596-Clipped">
                        <mask id="mask-2" sketch:name="path1592" fill="white">
                            <use xlink:href="#path-1"></use>
                        </mask>
                        <g id="path1592"></g>
                        <g id="g1596" mask="url(#mask-2)" fill="#FFFFFF" sketch:type="MSShapeGroup">
                            <g id="g1598" transform="translate(0.216850, -0.148826)">
                                <path d="M383.338981,1052.30308 L40.5700421,1052.30308 C18.5017432,1052.30308 0.544942668,1034.35004 0.544942668,1012.28174 L0.544942668,40.3032081 C0.544942668,18.2349092 18.5017432,0.281866897 40.5700421,0.281866897 L145.255408,0.281866897 L383.338981,1052.30308 L383.338981,1052.30308 Z" id="path1600"></path>
                            </g>
                        </g>
                    </g>
                </g>
            </g>
        </g>
    </g>
</svg>